<svg width="26" height="25" viewBox="0 0 26 25" fill="none" xmlns="http://www.w3.org/2000/svg">
<path d="M21.1217 8.32188L13 15.9344L4.87822 8.32188C4.73312 8.18558 4.53832 8.10927 4.33547 8.10927C4.13262 8.10927 3.93782 8.18558 3.79272 8.32188C3.72246 8.38807 3.66664 8.46708 3.62853 8.55428C3.59043 8.64147 3.5708 8.73511 3.5708 8.82969C3.5708 8.92427 3.59043 9.0179 3.62853 9.1051C3.66664 9.1923 3.72246 9.27131 3.79272 9.3375L12.4328 17.4375C12.5846 17.5797 12.7881 17.6593 13 17.6593C13.2119 17.6593 13.4154 17.5797 13.5671 17.4375L22.2072 9.33906C22.278 9.27282 22.3342 9.19362 22.3726 9.10613C22.411 9.01864 22.4308 8.92465 22.4308 8.82969C22.4308 8.73473 22.411 8.64073 22.3726 8.55325C22.3342 8.46576 22.278 8.38656 22.2072 8.32031C22.0621 8.18402 21.8673 8.10771 21.6645 8.10771C21.4616 8.10771 21.2668 8.18402 21.1217 8.32031V8.32188Z" fill="black"/>
</svg>
