<svg width="25" height="29" viewBox="0 0 25 29" fill="none" xmlns="http://www.w3.org/2000/svg">
<path d="M22.714 12.1335H21.875V12.0833H12.5V16.9167H18.387C17.5281 19.7303 15.2203 21.75 12.5 21.75C9.04842 21.75 6.24998 18.5038 6.24998 14.5C6.24998 10.4962 9.04842 7.25001 12.5 7.25001C14.0932 7.25001 15.5427 7.94721 16.6463 9.08607L19.5927 5.6683C17.7323 3.65703 15.2437 2.41667 12.5 2.41667C6.74738 2.41667 2.08331 7.82698 2.08331 14.5C2.08331 21.173 6.74738 26.5833 12.5 26.5833C18.2526 26.5833 22.9166 21.173 22.9166 14.5C22.9166 13.6898 22.8448 12.899 22.714 12.1335Z" fill="#FFC107"/>
<path d="M3.28436 8.87582L6.70676 11.7873C7.6328 9.12775 9.87551 7.25 12.5 7.25C14.0932 7.25 15.5427 7.94721 16.6463 9.08607L19.5927 5.6683C17.7323 3.65703 15.2437 2.41667 12.5 2.41667C8.49895 2.41667 5.02915 5.03694 3.28436 8.87582Z" fill="#FF3D00"/>
<path d="M12.5 26.5833C15.1906 26.5833 17.6354 25.3889 19.4839 23.4465L16.2599 20.2819C15.1791 21.2359 13.8581 21.7517 12.5 21.75C9.79062 21.75 7.4901 19.746 6.62344 16.9493L3.22656 19.9852C4.95052 23.8984 8.45156 26.5833 12.5 26.5833Z" fill="#4CAF50"/>
<path d="M22.7141 12.1335H21.875V12.0833H12.5V16.9167H18.387C17.9762 18.2557 17.2361 19.4259 16.2583 20.2825L16.2599 20.2813L19.4839 23.4459C19.2557 23.6863 22.9167 20.5417 22.9167 14.5C22.9167 13.6898 22.8448 12.899 22.7141 12.1335Z" fill="#1976D2"/>
</svg>
