<svg width="34" height="25" viewBox="0 0 34 25" fill="none" xmlns="http://www.w3.org/2000/svg">
<path d="M30.8125 21.875H3.1875C1.42375 21.875 0 20.8281 0 19.5312V5.46875C0 4.17188 1.42375 3.125 3.1875 3.125H30.8125C32.5762 3.125 34 4.17188 34 5.46875V19.5312C34 20.8281 32.5762 21.875 30.8125 21.875ZM3.1875 4.6875C2.5925 4.6875 2.125 5.03125 2.125 5.46875V19.5312C2.125 19.9688 2.5925 20.3125 3.1875 20.3125H30.8125C31.4075 20.3125 31.875 19.9688 31.875 19.5312V5.46875C31.875 5.03125 31.4075 4.6875 30.8125 4.6875H3.1875Z" fill="black"/>
<path d="M28.0287 10.0469H26.435C25.9462 10.0469 25.585 10.1563 25.3513 10.5156L22.2912 15.6406H24.4588C24.4588 15.6406 24.8413 14.9531 24.905 14.7969H27.5613C27.6463 14.9844 27.8163 15.625 27.8163 15.625H29.75L28.0287 10.0625V10.0469ZM25.5 13.6406C25.6913 13.3125 26.3288 12.0781 26.3288 12.0781C26.3288 12.1094 26.52 11.75 26.5838 11.5625L26.7325 12.0625L27.2213 13.6875H25.5V13.6562V13.6406ZM22.44 13.7969C22.44 14.9531 21.0162 15.7188 18.8275 15.7188C17.8925 15.7188 17 15.5781 16.5112 15.4219L16.8087 14.1563L17.0637 14.2344C17.7437 14.4531 18.19 14.5313 18.9975 14.5313C19.5925 14.5313 20.23 14.3594 20.23 13.9844C20.23 13.7344 19.975 13.5781 19.1463 13.2969C18.36 13.0156 17.3187 12.5781 17.3187 11.7969C17.3187 10.7031 18.7638 9.95312 20.825 9.95312C21.6113 9.95312 22.27 10.0625 22.695 10.2031L22.3975 11.4063L22.2488 11.2969C21.8663 11.1875 21.3987 11.0781 20.6762 11.0781C19.89 11.1094 19.5287 11.3594 19.5287 11.5781C19.5287 11.8281 19.975 12.0156 20.6762 12.2656C21.8662 12.6719 22.4188 13.1406 22.4188 13.7969H22.44ZM4.25 10.0938L4.2925 9.98437H7.50125C7.9475 9.98437 8.2875 10.0938 8.39375 10.4531L9.095 12.9219C8.39375 11.6094 6.73625 10.5313 4.25 10.0938Z" fill="black"/>
<path d="M13.6 10.0469L10.3487 15.6094H8.13874L6.26874 10.9531C7.60749 11.5781 8.73374 12.5781 9.13749 13.25L9.37124 13.8281L11.39 10.0156H13.6V10.0469ZM14.4712 10.0156H16.5112L15.215 15.6094H13.175L14.4712 10.0156Z" fill="black"/>
</svg>
