<svg width="24" height="24" viewBox="0 0 24 24" fill="none" xmlns="http://www.w3.org/2000/svg">
<path d="M3.21429 0C2.3618 0 1.54424 0.387905 0.941443 1.07838C0.338647 1.76885 0 2.70534 0 3.68182V4.60227H22.5V3.68182C22.5 2.70534 22.1614 1.76885 21.5586 1.07838C20.9558 0.387905 20.1382 0 19.2857 0H3.21429Z" fill="black"/>
<path fill-rule="evenodd" clip-rule="evenodd" d="M22.5 7.36364H0V16.5682C0 17.5447 0.338647 18.4811 0.941443 19.1716C1.54424 19.8621 2.3618 20.25 3.21429 20.25H19.2857C20.1382 20.25 20.9558 19.8621 21.5586 19.1716C22.1614 18.4811 22.5 17.5447 22.5 16.5682V7.36364ZM3.21429 11.9659C3.21429 11.7218 3.29895 11.4877 3.44965 11.315C3.60034 11.1424 3.80474 11.0455 4.01786 11.0455H10.4464C10.6595 11.0455 10.8639 11.1424 11.0146 11.315C11.1653 11.4877 11.25 11.7218 11.25 11.9659C11.25 12.21 11.1653 12.4441 11.0146 12.6168C10.8639 12.7894 10.6595 12.8864 10.4464 12.8864H4.01786C3.80474 12.8864 3.60034 12.7894 3.44965 12.6168C3.29895 12.4441 3.21429 12.21 3.21429 11.9659ZM4.01786 14.7273C3.80474 14.7273 3.60034 14.8242 3.44965 14.9969C3.29895 15.1695 3.21429 15.4036 3.21429 15.6477C3.21429 15.8918 3.29895 16.126 3.44965 16.2986C3.60034 16.4712 3.80474 16.5682 4.01786 16.5682H7.23214C7.44526 16.5682 7.64965 16.4712 7.80035 16.2986C7.95105 16.126 8.03571 15.8918 8.03571 15.6477C8.03571 15.4036 7.95105 15.1695 7.80035 14.9969C7.64965 14.8242 7.44526 14.7273 7.23214 14.7273H4.01786Z" fill="black"/>
</svg>
