<svg width="19" height="30" viewBox="0 0 19 30" fill="none" xmlns="http://www.w3.org/2000/svg">
<g clip-path="url(#clip0_60_70)">
<path d="M16.1179 2.33513C15.0838 0.757445 13.2144 0.0810547 10.8228 0.0810547H3.88186C3.64523 0.0810058 3.41635 0.193973 3.23639 0.399636C3.05644 0.605299 2.93721 0.890159 2.90017 1.20298L0.0100938 25.7361C-0.0473515 26.2199 0.232527 26.658 0.598871 26.658H4.88397L5.96014 17.5218L5.92674 17.8079C6.00341 17.1621 6.41606 16.6858 6.90472 16.6858H8.94099C12.9412 16.6858 16.0735 14.5111 16.9885 8.22009C17.0156 8.03403 17.0391 7.85294 17.0595 7.67602C16.944 7.59417 16.944 7.59417 17.0595 7.67602C17.3319 5.35082 17.0576 3.76807 16.1179 2.33513Z" fill="#27346A"/>
<path d="M7.59978 6.83841C7.7169 6.76363 7.84504 6.72493 7.97481 6.72516H13.4164C14.0607 6.72516 14.6618 6.78129 15.211 6.8996C15.3647 6.93242 15.5176 6.97158 15.6694 7.01701C15.8847 7.0806 16.0975 7.15841 16.307 7.25016C16.577 7.37086 16.8284 7.51142 17.0596 7.67602C17.3319 5.34993 17.0576 3.76807 16.1179 2.33513C15.0832 0.757445 13.2144 0.0810547 10.8228 0.0810547H3.88127C3.39254 0.0810547 2.97677 0.55728 2.90017 1.20298L0.0100942 25.7352C-0.0473511 26.2198 0.232528 26.6573 0.598278 26.6573H4.88397L7.11669 7.70662C7.13866 7.52036 7.1941 7.34403 7.27826 7.19279C7.36241 7.04156 7.47274 6.91994 7.59978 6.83841Z" fill="#27346A"/>
<path d="M16.9885 8.2201C16.0735 14.5102 12.9413 16.6858 8.941 16.6858H6.90414C6.41548 16.6858 6.00275 17.1621 5.92682 17.8079L4.58799 29.1676C4.53797 29.591 4.78259 29.9747 5.10262 29.9747H8.71485C8.92177 29.9746 9.12188 29.8757 9.2792 29.6958C9.43651 29.5159 9.54071 29.2668 9.57304 28.9932L9.60822 28.7469L10.289 22.9718L10.3329 22.6526C10.3652 22.379 10.4694 22.1299 10.6267 21.95C10.784 21.7701 10.9841 21.6712 11.191 21.6711H11.7316C15.2308 21.6711 17.9707 19.7684 18.7714 14.2655C19.1056 11.9658 18.9327 10.0458 18.0486 8.69722C17.7804 8.28874 17.4474 7.95139 17.0595 7.67603C17.0385 7.85384 17.0157 8.03404 16.9885 8.2201Z" fill="#2790C3"/>
<path d="M16.1019 7.16504C15.9592 7.10928 15.8152 7.05992 15.6701 7.01702C15.5182 6.97231 15.3653 6.93342 15.2117 6.9004C14.6618 6.78129 14.0613 6.72507 13.4163 6.72507H7.9754C7.84556 6.72478 7.71736 6.7638 7.60038 6.83921C7.47318 6.92045 7.36269 7.04198 7.2785 7.19327C7.19431 7.34455 7.13895 7.52103 7.11721 7.70742L5.96074 17.5218L5.92734 17.8079C6.00341 17.1621 6.41607 16.6858 6.9048 16.6858H8.94166C12.9419 16.6858 16.0741 14.5111 16.989 8.2201C17.0163 8.03404 17.0391 7.85374 17.0602 7.67603C16.8285 7.51245 16.5776 7.37076 16.3076 7.25096C16.2394 7.22072 16.1709 7.19207 16.102 7.16504" fill="#1F264F"/>
</g>
<defs>
<clipPath id="clip0_60_70">
<rect width="19" height="30" fill="white"/>
</clipPath>
</defs>
</svg>
