<svg width="31" height="23" viewBox="0 0 31 23" fill="none" xmlns="http://www.w3.org/2000/svg">
<path d="M1 18.6591C1 19.5452 1.38192 20.3949 2.06174 21.0215C2.74156 21.648 3.66359 22 4.625 22H26.375C27.3364 22 28.2584 21.648 28.9383 21.0215C29.6181 20.3949 30 19.5452 30 18.6591V9.47159H1V18.6591ZM5.27232 14.125C5.27232 13.6503 5.47692 13.1951 5.84111 12.8594C6.2053 12.5238 6.69924 12.3352 7.21429 12.3352H10.3214C10.8365 12.3352 11.3304 12.5238 11.6946 12.8594C12.0588 13.1951 12.2634 13.6503 12.2634 14.125V15.3182C12.2634 15.7929 12.0588 16.2481 11.6946 16.5837C11.3304 16.9194 10.8365 17.108 10.3214 17.108H7.21429C6.69924 17.108 6.2053 16.9194 5.84111 16.5837C5.47692 16.2481 5.27232 15.7929 5.27232 15.3182V14.125ZM26.375 1H4.625C3.66359 1 2.74156 1.35199 2.06174 1.97853C1.38192 2.60507 1 3.45484 1 4.34091V5.89205H30V4.34091C30 3.45484 29.6181 2.60507 28.9383 1.97853C28.2584 1.35199 27.3364 1 26.375 1Z" fill="black" stroke="#007AFF" stroke-opacity="0.15"/>
</svg>
